<svg xmlns="http://www.w3.org/2000/svg" style="display:none">
  <!-- @atlaskit/icon glyphs (16px viewBox) -->
  <symbol id="icon-sidebar" viewBox="0 0 24 24"><path fill="currentColor" fill-rule="evenodd" d="M3 4.75A1.75 1.75 0 0 1 4.75 3h14.5A1.75 1.75 0 0 1 21 4.75v14.5A1.75 1.75 0 0 1 19.25 21H4.75A1.75 1.75 0 0 1 3 19.25V4.75Zm1.75-.25a.25.25 0 0 0-.25.25v14.5c0 .138.112.25.25.25H9V4.5H4.75Zm10.5 0H11v16h4.25a.25.25 0 0 0 .25-.25V4.75a.25.25 0 0 0-.25-.25Z" clip-rule="evenodd"/></symbol>
  <symbol id="icon-history" viewBox="0 0 16 16"><path fill="currentColor" fill-rule="evenodd" d="M8 1.5a6.5 6.5 0 1 0 0 13 6.5 6.5 0 0 0 0-13M0 8a8 8 0 1 1 16 0A8 8 0 0 1 0 8m8-3.25a.75.75 0 0 1 .75.75v2.69l1.78 1.78a.75.75 0 1 1-1.06 1.06l-2-2A.75.75 0 0 1 7.25 8V5.5A.75.75 0 0 1 8 4.75" clip-rule="evenodd"/></symbol>
  <symbol id="icon-app-switcher" viewBox="0 0 16 16"><path fill="currentColor" d="M5.5 11a.5.5 0 0 0-.5-.5H3a.5.5 0 0 0-.5.5v2a.5.5 0 0 0 .5.5h2a.5.5 0 0 0 .5-.5zm8 0a.5.5 0 0 0-.5-.5h-2a.5.5 0 0 0-.5.5v2a.5.5 0 0 0 .5.5h2a.5.5 0 0 0 .5-.5zm-8-8a.5.5 0 0 0-.5-.5H3a.5.5 0 0 0-.5.5v2a.5.5 0 0 0 .5.5h2a.5.5 0 0 0 .5-.5zm8 0a.5.5 0 0 0-.5-.5h-2a.5.5 0 0 0-.5.5v2a.5.5 0 0 0 .5.5h2a.5.5 0 0 0 .5-.5zM7 13a2 2 0 0 1-2 2H3a2 2 0 0 1-2-2v-2a2 2 0 0 1 2-2h2a2 2 0 0 1 2 2zm8 0a2 2 0 0 1-2 2h-2a2 2 0 0 1-2-2v-2a2 2 0 0 1 2-2h2a2 2 0 0 1 2 2zM7 5a2 2 0 0 1-2 2H3a2 2 0 0 1-2-2V3a2 2 0 0 1 2-2h2a2 2 0 0 1 2 2zm8 0a2 2 0 0 1-2 2h-2a2 2 0 0 1-2-2V3a2 2 0 0 1 2-2h2a2 2 0 0 1 2 2z"/></symbol>
  <symbol id="icon-search" viewBox="0 0 16 16"><path fill="currentColor" fill-rule="evenodd" d="M7 2.5a4.5 4.5 0 1 0 0 9 4.5 4.5 0 0 0 0-9M1 7a6 6 0 1 1 10.74 3.68l3.29 3.29-1.06 1.06-3.29-3.29A6 6 0 0 1 1 7" clip-rule="evenodd"/></symbol>
  <symbol id="icon-add" viewBox="0 0 16 16"><path fill="currentColor" d="M8.75 1.5v5.75h5.75v1.5H8.75v5.75h-1.5V8.75H1.5v-1.5h5.75V1.5z"/></symbol>
  <symbol id="icon-notification" viewBox="0 0 16 16"><path fill="currentColor" d="M6.42 13.5a1.748 1.748 0 0 0 3.16 0zM4.5 8.636c0 .215-.06.426-.175.608L2.603 12h10.795l-1.723-2.756a1.15 1.15 0 0 1-.175-.608V5a3.5 3.5 0 0 0-7 0zm8.5-.1 1.788 2.86a1.375 1.375 0 0 1-1.166 2.104h-2.46a3.25 3.25 0 0 1-6.324 0h-2.46a1.375 1.375 0 0 1-1.166-2.104L3 8.537V5a5 5 0 0 1 10 0z"/></symbol>
  <symbol id="icon-question" viewBox="0 0 16 16"><path fill="currentColor" fill-rule="evenodd" d="M8 1.5a6.5 6.5 0 1 0 0 13 6.5 6.5 0 0 0 0-13M0 8a8 8 0 1 1 16 0A8 8 0 0 1 0 8m8-3c-.586 0-1 .414-1 1H5.5c0-1.414 1.086-2.5 2.5-2.5s2.5 1.086 2.5 2.5c0 1.133-.713 1.706-1.162 2.058-.511.402-.588.494-.588.692v.75h-1.5v-.75c0-.977.689-1.507 1.078-1.806l.084-.065C8.838 6.544 9 6.367 9 6c0-.586-.414-1-1-1" clip-rule="evenodd"/><path fill="currentColor" d="M9 11.5a1 1 0 1 1-2 0 1 1 0 0 1 2 0"/></symbol>
  <symbol id="icon-settings" viewBox="0 0 16 16"><path fill="currentColor" fill-rule="evenodd" d="M6.058.462A.75.75 0 0 1 6.75 0h2.5a.75.75 0 0 1 .692.462l1.026 2.462 2.578-.374a.75.75 0 0 1 .757.367l1.25 2.166a.75.75 0 0 1-.049.824L13.937 8l1.567 2.093c.18.24.2.565.05.825l-1.25 2.165a.75.75 0 0 1-.758.367l-2.578-.374-1.026 2.463A.75.75 0 0 1 9.25 16h-2.5a.75.75 0 0 1-.692-.461l-1.026-2.463-2.578.374a.75.75 0 0 1-.757-.367l-1.25-2.165a.75.75 0 0 1 .049-.825L2.063 8 .496 5.907a.75.75 0 0 1-.05-.824l1.25-2.166a.75.75 0 0 1 .758-.367l2.578.374zM7.25 1.5l-.871 2.09c-.242.58-.845.923-1.467.833l-2.17-.315-.749 1.296L3.32 7.176c.366.488.366 1.16 0 1.648l-1.327 1.772.749 1.296 2.17-.315a1.375 1.375 0 0 1 1.467.832L7.25 14.5h1.5l.871-2.09c.242-.58.845-.923 1.467-.833l2.17.315.749-1.296-1.327-1.772a1.375 1.375 0 0 1 0-1.648l1.327-1.772-.749-1.296-2.17.315A1.375 1.375 0 0 1 9.62 3.59L8.75 1.5zm.75 5a1.5 1.5 0 1 0 0 3 1.5 1.5 0 0 0 0-3M5 8a3 3 0 1 1 6 0 3 3 0 0 1-6 0" clip-rule="evenodd"/></symbol>
  <symbol id="icon-ai" viewBox="0 0 16 16"><path fill="currentColor" d="M8.75 12v3h-1.5v-3zm-2.22-1.47-4 4-1.06-1.06 4-4zm8 2.94-1.06 1.06-4-4 1.06-1.06zM4 7.25v1.5H1v-1.5zm11 0v1.5h-3v-1.5zM6.53 5.47 5.47 6.53l-4-4 1.06-1.06zm8-2.94-4 4-1.06-1.06 4-4zM8.75 1v3h-1.5V1z"/></symbol>
  <symbol id="icon-book" viewBox="0 0 16 16"><path fill="currentColor" fill-rule="evenodd" d="M2 2.875A2.875 2.875 0 0 1 4.875 0h8.375a.75.75 0 0 1 .75.75V9.5a.75.75 0 0 1-.75.75V13H14v1.5h-3.5V13h1.25v-2.75H4.875a1.375 1.375 0 1 0 0 2.75H5.5v1.5h-.625A2.875 2.875 0 0 1 2 11.625zM3.5 9.1a2.86 2.86 0 0 1 1.375-.35H12.5V1.5H4.875c-.76 0-1.375.616-1.375 1.375z" clip-rule="evenodd"/><path fill="currentColor" d="M6.5 15.564V11.5h3v4.064a.25.25 0 0 1-.441.16L8 14.465l-1.059 1.26a.25.25 0 0 1-.441-.16"/></symbol>
  <symbol id="icon-bug" viewBox="0 0 16 16"><path fill="currentColor" fill-rule="evenodd" d="M8 2.5A1.5 1.5 0 0 0 6.5 4h3A1.5 1.5 0 0 0 8 2.5m3 1.52V4a3 3 0 0 0-6 0v.02c-.29.05-.553.182-.761.372l-.887-.633-.917-2.064-1.37.61.944 2.125c.09.204.234.38.416.51l1.325.946V7H.5v1.5h3.25v1.149l-1.15.958a1.25 1.25 0 0 0-.318.401L1.08 13.415l1.342.67 1.18-2.36.46-.383A4.25 4.25 0 0 0 8.001 14h.249A4 4 0 0 0 12 11.393l.4.333 1.18 2.36 1.34-.671-1.202-2.407a1.25 1.25 0 0 0-.318-.401l-1.15-.958V8.5h3.25V7h-3.25V5.886l1.325-.946a1.25 1.25 0 0 0 .416-.51l.944-2.125-1.37-.61-.917 2.064-.887.633A1.5 1.5 0 0 0 11 4.02M10.75 10V5.5h-5.5v4.443l.035.226A2.75 2.75 0 0 0 8 12.5h.249a2.5 2.5 0 0 0 2.5-2.5" clip-rule="evenodd"/></symbol>
  <symbol id="icon-attachment" viewBox="0 0 16 16"><path fill="currentColor" d="m5.22 8.47 4.5-4.5 1.06 1.06-4.5 4.5a.664.664 0 0 0 .94.94l4.5-4.5a2.079 2.079 0 0 0-2.94-2.94l-4.5 4.5a3.492 3.492 0 0 0 4.94 4.94l2.5-2.5 1.06 1.06-2.5 2.5a4.993 4.993 0 0 1-7.06-7.06l4.5-4.5a3.578 3.578 0 0 1 5.06 5.06l-4.5 4.5a2.165 2.165 0 0 1-3.06-3.06"/></symbol>
  <symbol id="icon-eye" viewBox="0 0 16 16"><path fill="currentColor" fill-rule="evenodd" d="M8 3.5c-2.943 0-5.49 1.845-6.424 4.396a.3.3 0 0 0 0 .208C2.509 10.655 5.057 12.5 8 12.5s5.49-1.845 6.424-4.396a.3.3 0 0 0 0-.208C13.491 5.345 10.943 3.5 8 3.5M.167 7.38C1.32 4.232 4.433 2 8 2c3.566 0 6.681 2.232 7.833 5.38.146.4.146.84 0 1.24C14.68 11.768 11.566 14 8 14 4.433 14 1.319 11.768.167 8.62a1.8 1.8 0 0 1 0-1.24M8 6.5a1.5 1.5 0 1 0 0 3 1.5 1.5 0 0 0 0-3M5 8a3 3 0 1 1 6 0 3 3 0 0 1-6 0" clip-rule="evenodd"/></symbol>
  <symbol id="icon-share" viewBox="0 0 16 16"><path fill="currentColor" fill-rule="evenodd" d="M12 2.5a1 1 0 1 0 0 2 1 1 0 0 0 0-2m-2.5 1a2.5 2.5 0 1 1 .73 1.765L6.212 7.567a2.5 2.5 0 0 1 0 .866l4.016 2.302a2.5 2.5 0 1 1-.692 1.332L5.521 9.766a2.5 2.5 0 1 1 0-3.53l4.016-2.302A2.5 2.5 0 0 1 9.5 3.5M3.75 7a1 1 0 1 0 0 2 1 1 0 0 0 0-2M12 11.5a1 1 0 1 0 0 2 1 1 0 0 0 0-2" clip-rule="evenodd"/></symbol>
  <symbol id="icon-more" viewBox="0 0 16 16"><path fill="currentColor" fill-rule="evenodd" d="M0 8a1.5 1.5 0 1 1 3 0 1.5 1.5 0 0 1-3 0m6.5 0a1.5 1.5 0 1 1 3 0 1.5 1.5 0 0 1-3 0M13 8a1.5 1.5 0 1 1 3 0 1.5 1.5 0 0 1-3 0" clip-rule="evenodd"/></symbol>
  <symbol id="icon-chevron-down" viewBox="0 0 16 16"><path fill="currentColor" d="m14.53 6.03-6 6a.75.75 0 0 1-1.004.052l-.056-.052-6-6 1.06-1.06L8 10.44l5.47-5.47z"/></symbol>
  <symbol id="icon-chevron-right" viewBox="0 0 16 16"><path fill="currentColor" d="m6.03 1.47 6 6a.75.75 0 0 1 .052 1.004l-.052.056-6 6-1.06-1.06L10.44 8 4.97 2.53z"/></symbol>
  <symbol id="icon-automation" viewBox="0 0 16 16"><path fill="currentColor" fill-rule="evenodd" d="M10.377.102a.75.75 0 0 1 .346.847L8.985 7.25h4.265a.75.75 0 0 1 .53 1.28l-7.25 7.25a.75.75 0 0 1-1.253-.73l1.738-6.3H2.75a.75.75 0 0 1-.53-1.28L9.47.22a.75.75 0 0 1 .907-.118M7.43 7.25l1.093-3.96L4.56 7.25zm1.142 1.5-1.093 3.96 3.961-3.96z" clip-rule="evenodd"/></symbol>
  <symbol id="icon-child-work" viewBox="0 0 16 16"><path fill="currentColor" d="M8.5 13.5h5V11h-5zm0-7h5V4h-5zm6.5.25C15 7.44 14.44 8 13.75 8h-5.5C7.56 8 7 7.44 7 6.75V6H2.5v5a.5.5 0 0 0 .5.5h4v-.75c0-.69.56-1.25 1.25-1.25h5.5c.69 0 1.25.56 1.25 1.25v3c0 .69-.56 1.25-1.25 1.25h-5.5C7.56 15 7 14.44 7 13.75V13H3a2 2 0 0 1-2-2V1h1.5v3.5H7v-.75c0-.69.56-1.25 1.25-1.25h5.5c.69 0 1.25.56 1.25 1.25z"/></symbol>
  <symbol id="icon-priority-lowest" viewBox="0 0 16 16"><path fill="currentColor" d="m13.913 9.251-5.5 3.625a.75.75 0 0 1-.826 0l-5.5-3.625.826-1.252L8 11.352l5.087-3.353zm0-4.5-5.5 3.625a.75.75 0 0 1-.826 0l-5.5-3.625.826-1.252L8 6.852l5.087-3.353z"/></symbol>
  <symbol id="icon-check" viewBox="0 0 16 16"><path fill="currentColor" d="m13.959 3.97-7.25 9a.75.75 0 0 1-1.163.007l-3.5-4.25 1.158-.954 2.914 3.539 6.673-8.283z"/></symbol>
  <symbol id="icon-star" viewBox="0 0 16 16"><path fill="currentColor" fill-rule="evenodd" d="M8 1.5 9.82 5.2l4.03.59-2.92 2.85.69 4.01L8 10.77l-3.62 1.9.69-4.01-2.92-2.85 4.03-.59z" clip-rule="evenodd"/></symbol>
  <symbol id="icon-person" viewBox="0 0 16 16"><path fill="currentColor" fill-rule="evenodd" d="M8 1.5a2.5 2.5 0 1 0 0 5 2.5 2.5 0 0 0 0-5M4 4a4 4 0 1 1 8 0 4 4 0 0 1-8 0m-2 9a3.75 3.75 0 0 1 3.75-3.75h4.5A3.75 3.75 0 0 1 14 13v2h-1.5v-2a2.25 2.25 0 0 0-2.25-2.25h-4.5A2.25 2.25 0 0 0 3.5 13v2H2z" clip-rule="evenodd"/></symbol>
  <symbol id="icon-link-copy" viewBox="0 0 16 16"><path fill="currentColor" fill-rule="evenodd" d="M3 2.5a.5.5 0 0 0-.5.5v10a.5.5 0 0 0 .5.5h10a.5.5 0 0 0 .5-.5v-3H15v3a2 2 0 0 1-2 2H3a2 2 0 0 1-2-2V3a2 2 0 0 1 2-2h3v1.5zM10 1h4.25a.75.75 0 0 1 .75.75V6h-1.5V3.56L7.53 9.53 6.47 8.47l5.97-5.97H10z" clip-rule="evenodd"/></symbol>
  <symbol id="icon-board" viewBox="0 0 16 16"><path fill="currentColor" fill-rule="evenodd" d="M2 2.875A2.875 2.875 0 0 1 4.875 0h6.25A2.875 2.875 0 0 1 14 2.875v10.25A2.875 2.875 0 0 1 11.125 16H4.875A2.875 2.875 0 0 1 2 13.125zm2.875-.625a1.375 1.375 0 0 0-1.375 1.375v10.25c0 .76.616 1.375 1.375 1.375h6.25a1.375 1.375 0 0 0 1.375-1.375V3.625A1.375 1.375 0 0 0 9.125 2.25zM5 5.75A.75.75 0 0 1 5.75 5h4.5a.75.75 0 0 1 0 1.5h-4.5A.75.75 0 0 1 5 5.75m0 3A.75.75 0 0 1 5.75 8h4.5a.75.75 0 0 1 0 1.5h-4.5A.75.75 0 0 1 5 8.75m0 3a.75.75 0 0 1 .75-.75h2.5a.75.75 0 0 1 0 1.5h-2.5A.75.75 0 0 1 5 11.75" clip-rule="evenodd"/></symbol>
  <symbol id="icon-sort" viewBox="0 0 16 16"><path fill="currentColor" d="M5.5 3.25a.75.75 0 0 1 .75-.75h3.5a.75.75 0 0 1 0 1.5H6.25a.75.75 0 0 1-.75-.75m0 4.5a.75.75 0 0 1 .75-.75h3.5a.75.75 0 0 1 0 1.5H6.25a.75.75 0 0 1-.75-.75M5.5 12.25a.75.75 0 0 1 .75-.75h3.5a.75.75 0 0 1 0 1.5H6.25a.75.75 0 0 1-.75-.75M11.53 3.03a.75.75 0 0 1 1.004.052l2 2.25a.75.75 0 0 1-1.004 1.116L12.25 5.5V12a.75.75 0 0 1-1.5 0V5.5l-1.28 1.898a.75.75 0 0 1-1.116-1.004l2-2.25a.75.75 0 0 1 .166-.114"/></symbol>
</svg>
